<svg version="1.2" xmlns="http://www.w3.org/2000/svg" viewBox="0 0 1550 515" width="310" height="103">
	<style>
		.s0 { fill: #004084 } 
		.s1 { fill: #45c0be } 
		.s2 { fill: #ffffff } 
	</style>
	<path class="s0" d="m616.9 460.2h-59.6v49.8h-16.1v-111.2h16.1v46.6h59.6v-46.6h16.2v111h-16.2z"/>
	<path fill-rule="evenodd" class="s0" d="m688.9 427.4c23.4 0 38 18.9 38 43.5v3.6h-61.7c0.4 6.9 3.3 13.4 8.3 18.1 4.9 4.6 11.5 7.1 18.2 6.8 8.6 0.1 16.8-3.3 23-9.4l6.9 9.9c-8.5 8.1-19.8 12.4-31.4 12-10.6-0.2-20.8-4.6-28.3-12.4-7.6-7.7-11.9-18.2-12-29.1-0.2-11 3.8-21.6 11.1-29.6 7.3-8 17.3-12.8 27.9-13.3zm-23.9 36.3h47.7c0-3.2-0.6-6.4-1.8-9.3-1.2-3-3-5.6-5.2-7.9-2.2-2.2-4.8-4-7.7-5.1-2.9-1.2-6-1.7-9.1-1.7-6.2 0-12.2 2.5-16.7 7-4.4 4.5-7 10.6-7.2 17z"/>
	<path fill-rule="evenodd" class="s0" d="m791.9 501c-3.2 3.5-7.2 6.3-11.6 8.2-4.4 1.9-9.1 2.8-13.9 2.6-3.5 0.1-6.9-0.4-10.2-1.7-3.3-1.2-6.3-3.2-8.8-5.7-2.6-2.4-4.6-5.4-6-8.7-1.4-3.3-2.1-6.9-2.1-10.5 0-18.3 14-26.3 27.1-26.3 4.8-0.3 9.5 0.6 13.9 2.4 4.4 1.8 8.4 4.7 11.6 8.2v-13.3c0-9.9-7.9-15.9-19-15.9-4.4 0-8.8 1-12.8 2.8-4 1.8-7.6 4.5-10.6 7.8l-6.3-10.3c4.2-4.3 9.2-7.7 14.7-9.9 5.5-2.3 11.3-3.4 17.2-3.3 17 0 31.4 7.7 31.4 28.2v54.2h-14.5zm0-22.5c-2.5-3-5.5-5.4-9-6.9-3.5-1.6-7.3-2.4-11-2.2-10.5 0-17.9 6.5-17.9 15.9 0 9.5 7.4 16 17.9 16 3.7 0.2 7.5-0.5 11-2.1 3.5-1.6 6.5-4 9-7z"/>
	<path class="s0" d="m830.6 398.8h14.5v111h-14.5z"/>
	<path class="s0" d="m873.5 492v-49.4h-13v-13.2h13v-21.9h14.5v21.9h15.8v13.2h-15.8v46.1c0 5.6 2.5 9.9 7.6 9.9 2.9 0.1 5.7-1 7.8-3.1l3.8 11.3c-2.1 1.8-4.5 3.2-7.1 4.1-2.7 0.8-5.4 1.1-8.1 0.9-12.2 0-18.5-7.1-18.5-19.8z"/>
	<path class="s0" d="m975.7 458.1c0-13.3-6.6-17.3-16.6-17.3-4.2 0.1-8.4 1.2-12.1 3.3-3.7 2-6.9 4.8-9.4 8.3v57.4h-14.5v-111h14.5v42c3.4-4.1 7.6-7.4 12.4-9.7 4.7-2.3 9.9-3.6 15.1-3.7 16.7 0 25.1 8.7 25.1 25.7v56.7h-14.5z"/>
	<path class="s0" d="m1046.9 427.4c5.6-0.3 11.1 0.9 16.2 3.3 5.1 2.5 9.5 6.2 12.8 10.9l-9.7 9.2c-2-3.2-4.9-5.8-8.2-7.6-3.3-1.7-6.9-2.5-10.6-2.4-15.4 0-25.2 12.1-25.2 28.7 0 16.7 9.6 29 25.2 29 3.7 0.1 7.3-0.8 10.6-2.5 3.3-1.8 6.1-4.3 8.2-7.5l9.7 9.1c-3.3 4.7-7.7 8.4-12.8 10.9-5.1 2.4-10.6 3.6-16.2 3.3-23.6 0-39.7-18.2-39.7-42.3 0-24.1 16.1-42.1 39.7-42.1z"/>
	<path fill-rule="evenodd" class="s0" d="m1141.5 501c-3.3 3.5-7.2 6.3-11.6 8.2-4.4 1.9-9.2 2.8-13.9 2.6-3.5 0.1-7-0.4-10.3-1.7-3.3-1.2-6.3-3.2-8.8-5.7-2.5-2.4-4.6-5.4-5.9-8.7-1.4-3.3-2.1-6.9-2.2-10.5 0-18.3 14.1-26.3 27.2-26.3 4.7-0.3 9.5 0.6 13.9 2.4 4.4 1.8 8.4 4.7 11.6 8.2v-13.3c0-9.9-7.9-15.9-19-15.9-4.4 0-8.8 1-12.8 2.8-4 1.8-7.7 4.5-10.6 7.8l-6.4-10.3c4.2-4.3 9.2-7.7 14.7-9.9 5.5-2.3 11.4-3.4 17.3-3.3 17 0 31.3 7.7 31.3 28.2v54.2h-14.5zm0-22.5c-2.4-3-5.5-5.4-9-6.9-3.4-1.6-7.2-2.4-11-2.2-10.5 0-17.9 6.5-17.9 15.9 0 9.5 7.5 16.2 17.9 16.2 3.8 0.1 7.6-0.6 11-2.2 3.5-1.6 6.6-4 9-7z"/>
	<path class="s0" d="m1179.6 429.4h14.5v12.3c3-4.2 6.8-7.6 11.2-10.1 4.4-2.4 9.3-3.8 14.4-4v14.9q-2.4-0.5-4.9-0.5c-4 0.3-7.9 1.5-11.5 3.5-3.5 2-6.6 4.8-9 8.1v55.9h-14.5z"/>
	<path fill-rule="evenodd" class="s0" d="m1266.3 427.4c23.4 0 37.9 18.9 37.9 43.5v3.6h-61.6c0.3 6.9 3.3 13.4 8.3 18.1 4.9 4.6 11.4 7.1 18.1 6.8 8.6 0.1 16.9-3.3 23.1-9.4l6.8 9.9c-8.5 8.1-19.8 12.4-31.3 12-10.7-0.2-20.8-4.6-28.4-12.4-7.5-7.7-11.8-18.2-11.9-29.2-0.2-10.9 3.8-21.5 11.1-29.5 7.3-8 17.3-12.8 27.9-13.3zm23.7 36.3c0-3.2-0.6-6.4-1.7-9.3-1.2-2.9-3-5.6-5.2-7.9-2.2-2.2-4.8-3.9-7.7-5.1-2.9-1.2-6-1.7-9.1-1.7-6.2 0.1-12.1 2.6-16.6 7.1-4.5 4.5-7.1 10.5-7.3 16.9z"/>
	<path class="s0" d="m416.4 0.2v382.6c0 8.9-2.1 17.6-6.1 25.5-4 7.9-9.7 14.7-16.8 19.8l-103.3 75.8c-9.4 6.9-20.7 10.6-32.2 10.6h-99.2c-11.6 0-22.8-3.7-32.2-10.6l-103.6-75.8c-7-5.1-12.8-11.9-16.7-19.8-4-7.9-6.1-16.6-6.1-25.5v-382.6z"/>
	<path class="s1" d="m262 243.2h-107.3c-9.4 0-18.6 1.9-27.3 5.6-8.6 3.7-16.5 9.1-23.1 15.9l-62.3 64.3h83.2v85.7l83.1-85.7 83.3 85.7v-85.7h83.2l-62.3-64.3c-6.7-6.8-14.5-12.2-23.2-15.9-8.6-3.7-17.9-5.6-27.3-5.6zm-107.3-5.8h107.3c9.4 0.1 18.7-1.8 27.3-5.5 8.7-3.7 16.5-9.1 23.2-16l62.3-64h-83.2v-85.7l-83.2 85.7-83.2-85.7v85.7h-83.2l62.3 64.2c13.4 13.7 31.5 21.4 50.4 21.3z"/>
	<path class="s2" d="m273.9 219.3h-43.1v-44.4h-41v44.4h-43.1v42.3h43.1v44.3h41v-44.3h43.1z"/>
	<path fill-rule="evenodd" class="s0" d="m1231.1 328.6h-81.3l-24.2-68.2h-124.2l-24.2 68.2h-81.4l127.5-328.4h79.5zm-168-244.4l-41 116.1h82.2z"/>
	<path class="s0" d="m1431.7 159.8l110.7-159.6h-90.9l-69.7 106.4-70.7-106.4h-90l110.7 160.1-117.9 168.3h90l77.9-114.2 77.4 114.2h90.4z"/>
	<path class="s0" d="m800.3 0.2l-94.8 137.6-94.9-137.6h-69.4v328.4h74.9v-204.6l89.4 124.9 89.3-124.9v204.6h74.9v-328.4z"/>
</svg>